<?xml version="1.0" encoding="UTF-8" standalone="no"?>
<svg xmlns="http://www.w3.org/2000/svg" xmlns:xlink="http://www.w3.org/1999/xlink" width="48" height="48">
  <defs>
    <linearGradient id="i">
      <stop offset="0"/>
      <stop offset="1" stop-opacity="0"/>
    </linearGradient>
    <linearGradient id="a">
      <stop offset="0" stop-opacity="0"/>
      <stop offset=".5"/>
      <stop offset="1" stop-opacity="0"/>
    </linearGradient>
    <linearGradient xlink:href="#a" id="l" x1="302.85715" x2="302.85715" y1="366.64789" y2="609.50507" gradientTransform="matrix(2.77439 0 0 1.9697 -1892.179 -872.8854)" gradientUnits="userSpaceOnUse"/>
    <linearGradient id="j">
      <stop offset="0"/>
      <stop offset="1" stop-opacity="0"/>
    </linearGradient>
    <linearGradient id="c">
      <stop offset="0" stop-color="#fff"/>
      <stop offset="1" stop-color="#fff" stop-opacity="0"/>
    </linearGradient>
    <linearGradient id="b">
      <stop offset="0" stop-color="#dfdfdf"/>
      <stop offset="1" stop-color="silver"/>
    </linearGradient>
    <linearGradient xlink:href="#b" id="o" x1="64.571426" x2="72.85714" y1="9.7142859" y2="40.857143" gradientTransform="matrix(1.00851 0 0 1 -47.59576 -.285714)" gradientUnits="userSpaceOnUse"/>
    <linearGradient xlink:href="#c" id="p" x1="19.362535" x2="19.323767" y1="11.312428" y2=".50379461" gradientTransform="translate(-2)" gradientUnits="userSpaceOnUse"/>
    <linearGradient id="d" x1="14.9966" x2="32.511" y1="11.1885" y2="34.3075" gradientUnits="userSpaceOnUse">
      <stop offset="0" stop-color="#ebebeb"/>
      <stop offset=".5" stop-color="#fff"/>
      <stop offset="1" stop-color="#ebebeb"/>
    </linearGradient>
    <linearGradient id="e" x1="12.2744" x2="35.3912" y1="32.4165" y2="14.2033" gradientUnits="userSpaceOnUse">
      <stop offset="0" stop-color="#fbfbfb"/>
      <stop offset=".5" stop-color="#b6b6b6"/>
      <stop offset="1" stop-color="#e4e4e4"/>
    </linearGradient>
    <linearGradient id="f">
      <stop offset="0" stop-color="#fff" stop-opacity=".32673267"/>
      <stop offset="1" stop-color="#fff" stop-opacity=".60396039"/>
    </linearGradient>
    <linearGradient id="h">
      <stop offset="0" stop-color="#fff"/>
      <stop offset="1" stop-color="#fff" stop-opacity="0"/>
    </linearGradient>
    <linearGradient id="g">
      <stop offset="0" stop-color="#fff"/>
      <stop offset="1" stop-color="#fff" stop-opacity="0"/>
    </linearGradient>
    <linearGradient id="k" x1="12.2744" x2="35.3912" y1="32.4165" y2="14.2033" gradientUnits="userSpaceOnUse">
      <stop offset="0" stop-color="#fff307"/>
      <stop offset=".5" stop-color="#166eff"/>
      <stop offset="1" stop-color="#fff" stop-opacity="0"/>
    </linearGradient>
    <linearGradient xlink:href="#d" id="r" x1="14.9966" x2="32.511" y1="11.1885" y2="34.3075" gradientTransform="translate(18.55581 18.12886) scale(.68315)" gradientUnits="userSpaceOnUse"/>
    <linearGradient xlink:href="#e" id="s" x1="12.2744" x2="35.3912" y1="32.4165" y2="14.2033" gradientTransform="translate(18.02392 17.61692) scale(.7053)" gradientUnits="userSpaceOnUse"/>
    <linearGradient xlink:href="#f" id="t" x1="21.125" x2="29" y1="14.625" y2="28" gradientTransform="translate(17.73603 18.06909) scale(.7173)" gradientUnits="userSpaceOnUse"/>
    <linearGradient xlink:href="#f" id="u" x1="21.125" x2="29" y1="14.625" y2="28" gradientTransform="translate(17.73603 18.06909) scale(.7173)" gradientUnits="userSpaceOnUse"/>
    <linearGradient xlink:href="#g" id="v" x1="10.50172" x2="48.798885" y1="3.6100161" y2="54.698483" gradientTransform="translate(20.97995 19.56347) scale(.57384)" gradientUnits="userSpaceOnUse"/>
    <linearGradient xlink:href="#h" id="w" x1="28.702885" x2="17.742729" y1="31.494707" y2="18.366575" gradientUnits="userSpaceOnUse"/>
    <radialGradient xlink:href="#i" id="n" cx="605.71429" cy="486.64789" r="117.14286" fx="605.71429" fy="486.64789" gradientTransform="matrix(-2.77439 0 0 1.9697 112.7623 -872.8854)" gradientUnits="userSpaceOnUse"/>
    <radialGradient xlink:href="#i" id="m" cx="605.71429" cy="486.64789" r="117.14286" fx="605.71429" fy="486.64789" gradientTransform="matrix(2.77439 0 0 1.9697 -1891.633 -872.8854)" gradientUnits="userSpaceOnUse"/>
    <radialGradient xlink:href="#j" id="q" cx="24.546707" cy="37.595428" r="22.728432" fx="24.546707" fy="37.595428" gradientTransform="matrix(1 0 0 .33333 0 25.06362)" gradientUnits="userSpaceOnUse"/>
    <radialGradient xlink:href="#k" id="x" cx="37.751469" cy="27.569166" r="21.333334" fx="37.751469" fy="27.569166" gradientTransform="matrix(.44175 .49866 -.4071 .36062 32.00755 10.21308)" gradientUnits="userSpaceOnUse"/>
  </defs>
  <path fill="#6b6c69" fill-rule="evenodd" stroke="#606060" stroke-linecap="round" stroke-linejoin="round" d="m7.0663522 9.8326324 4.0765048-4.2612038h23.571429l4.320377 4.3622191-31.9683108-.1010153z" color="#000" overflow="visible" style="marker:none"/>
  <g color="#000" transform="matrix(.02018 0 0 .02087 41.09416 37.29644)">
    <path fill="url(#l)" d="M-1559.2523-150.69685h1339.6335v478.35718h-1339.6335z" opacity=".40206185" overflow="visible" style="marker:none"/>
    <path fill="url(#m)" d="M-219.61876-150.68038v478.33079c142.874166.90045 345.40022-107.16966 345.40014-239.196175 0-132.026537-159.436816-239.134595-345.40014-239.134615z" opacity=".40206185" overflow="visible" style="marker:none"/>
    <path fill="url(#n)" d="M-1559.2523-150.68038v478.33079c-142.8742.90045-345.4002-107.16966-345.4002-239.196175 0-132.026537 159.4368-239.134595 345.4002-239.134615z" opacity=".40206185" overflow="visible" style="marker:none"/>
  </g>
  <rect width="32.848644" height="31.142857" x="6.5756874" y="9.4285717" fill="url(#o)" fill-rule="evenodd" stroke="#606060" stroke-width="1.0000001" color="#000" overflow="visible" rx="1.4285721" ry="1.4285715" style="marker:none"/>
  <path fill="#a40000" fill-rule="evenodd" d="M38.857143 22.756128v16.428573c0 .474857-.363132.857143-.814198.857143H15.874474l.049389-17.285716h22.93328z" color="#000" overflow="visible" style="marker:none"/>
  <path fill="none" stroke="#606060" stroke-dasharray="1 1" d="M15.379549 11.285714v28" color="#000" overflow="visible" style="marker:none"/>
  <path fill="#f0f0f0" fill-rule="evenodd" d="M38.857143 22.613273V11.470414c0-.474857-.363132-.857143-.814198-.857143H15.874474l.049389 12.000002h22.93328z" color="#000" overflow="visible" style="marker:none"/>
  <path fill="none" stroke="url(#p)" stroke-width=".99999994" d="M11.512932 6.5274685h22.772115l4.256999 4.2569985v28.431057c0 .287766-.231668.519434-.519434.519434H7.9773979c-.2877664 0-.519434-.231668-.519434-.519434V10.784467l4.0549681-4.2569985z" color="#000" opacity=".62566847" overflow="visible" style="marker:none"/>
  <g transform="translate(-.999997 -.285714)">
    <path fill="url(#q)" fill-rule="evenodd" d="M47.275139 37.595428a22.728432 7.5761442 0 1 1-45.4568635 0 22.728432 7.5761442 0 1 1 45.4568635 0z" color="#000" opacity=".62566847" overflow="visible" style="marker:none" transform="translate(19.89726 20.62321) scale(.55024)"/>
    <g transform="translate(-1.642857 -2.642857)">
      <path fill="url(#r)" d="M34.951289 21.954475c-6.626509 0-11.955042 5.328533-11.955042 11.955042s5.328533 11.955042 11.955042 11.955042c6.62651 0 11.955043-5.328533 11.955043-11.955042s-5.328533-11.955042-11.955043-11.955042zm0 14.824252c-1.571234 0-2.86921-1.297976-2.86921-2.86921 0-1.571234 1.297976-2.86921 2.86921-2.86921 1.571234 0 2.86921 1.297976 2.86921 2.86921 0 1.571234-1.297976 2.86921-2.86921 2.86921z"/>
      <path fill="url(#s)" stroke="gray" d="M34.951305 21.566644c-6.841486 0-12.342888 5.501401-12.342888 12.342888 0 6.841486 5.501402 12.342887 12.342888 12.342887 6.841487 0 12.342888-5.501401 12.342888-12.342887 0-6.841487-5.501401-12.342888-12.342888-12.342888zm0 15.30518c-1.622208 0-2.962293-1.340084-2.962293-2.962292s1.340085-2.962293 2.962293-2.962293c1.622208 0 2.962293 1.340085 2.962293 2.962293 0 1.622208-1.340085 2.962292-2.962293 2.962292z"/>
      <path d="M34.951289 28.111323c-3.237952 0-5.798194 2.635543-5.798194 5.798194 0 3.237954 2.635543 5.798195 5.798194 5.798195 3.237953 0 5.798195-2.635543 5.798195-5.798195 0-3.237953-2.635544-5.798194-5.798195-5.798194zm0 8.960846c-1.731928 0-3.162651-1.430723-3.162651-3.162652 0-1.731928 1.430723-3.162651 3.162651-3.162651s3.162651 1.430723 3.162651 3.162651c0 1.731929-1.430723 3.162652-3.162651 3.162652z" opacity=".10999996"/>
      <path fill="url(#t)" d="m38.150519 22.816711-2.063876 8.030725c.645402.171876 1.161538.571243 1.512147 1.123894l7.111176-4.332097c-1.454832-2.369804-3.789773-4.113338-6.559447-4.822522z"/>
      <path fill="url(#u)" d="m30.911911 44.678269 2.717288-7.833804c-.629082-.224368-1.110628-.664826-1.414602-1.244438l-7.44334 3.73264c1.255025 2.481415 3.438679 4.411057 6.140654 5.345602z"/>
      <path fill="none" stroke="url(#v)" d="M34.951287 22.548803c-6.29708 0-11.360712 5.063632-11.360712 11.360712 0 6.297081 5.063632 11.360712 11.360712 11.360712 6.297081 0 11.360712-5.063631 11.360712-11.360712 0-6.29708-5.063631-11.360712-11.360712-11.360712z" opacity=".54644811"/>
      <path fill="none" stroke="url(#w)" stroke-width="1.6215941" d="M30.405591 24.930641a6.0987959 6.0987959 0 1 1-12.197592 0 6.0987959 6.0987959 0 1 1 12.197592 0z" color="#000" opacity=".67213112" overflow="visible" style="marker:none" transform="translate(21.03068 19.61419) scale(.57384)"/>
      <path fill="url(#x)" d="M34.951289 23.065643c-6.010605 0-10.843874 4.833269-10.843874 10.843874s4.833269 10.843874 10.843874 10.843874c6.010606 0 10.843875-4.833269 10.843875-10.843874s-4.833269-10.843874-10.843875-10.843874zm0 13.446404c-1.425195 0-2.60253-1.177335-2.60253-2.60253 0-1.425195 1.177335-2.60253 2.60253-2.60253 1.425195 0 2.60253 1.177335 2.60253 2.60253 0 1.425195-1.177335 2.60253-2.60253 2.60253z" opacity=".11428566"/>
    </g>
  </g>
</svg>